<svg width="24" height="24" viewBox="0 0 56 56" style="background: white; padding-top: 2px" fill="none" xmlns="http://www.w3.org/2000/svg">
<path d="M28 9.25C28 14.0825 24.0825 18 19.25 18C14.4175 18 10.5 14.0825 10.5 9.25C10.5 4.41751 14.4175 0.5 19.25 0.5C24.0825 0.5 28 4.41751 28 9.25Z" fill="#888888"/>
<path d="M10.5 25C4.70101 25 0 29.701 0 35.5V46H28V25H10.5Z" fill="#888888"/>
<path d="M45.5 25H35V46H56V35.5C56 29.701 51.299 25 45.5 25Z" fill="#888888"/>
<path d="M42 18C45.866 18 49 14.866 49 11C49 7.13401 45.866 4 42 4C38.134 4 35 7.13401 35 11C35 14.866 38.134 18 42 18Z" fill="#888888"/>
</svg>
